<mxfile host="app.diagrams.net" modified="2024-07-23T17:36:50.027Z" agent="Mozilla/5.0 (Windows NT 10.0; Win64; x64) AppleWebKit/537.36 (KHTML, like Gecko) Chrome/126.0.0.0 Safari/537.36" etag="1nZbn7jtWAU3A55cQBpa" version="24.7.1" type="github">
  <diagram name="Page-1" id="74b105a0-9070-1c63-61bc-23e55f88626e">
    <mxGraphModel dx="1674" dy="738" grid="1" gridSize="10" guides="1" tooltips="1" connect="1" arrows="1" fold="1" page="1" pageScale="1.5" pageWidth="1169" pageHeight="826" background="none" math="0" shadow="0">
      <root>
        <mxCell id="0" style=";html=1;" />
        <mxCell id="1" style=";html=1;" parent="0" />
        <mxCell id="10b056a9c633e61c-30" value="Siebel Day-to-Day Activities Automation" style="text;strokeColor=none;fillColor=none;html=1;fontSize=24;fontStyle=1;verticalAlign=middle;align=center;" parent="1" vertex="1">
          <mxGeometry x="80" y="40" width="1590" height="40" as="geometry" />
        </mxCell>
        <mxCell id="o_Yrqxy243uBN1DklZEX-1" value="" style="rounded=0;whiteSpace=wrap;html=1;" vertex="1" parent="1">
          <mxGeometry x="430" y="210" width="260" height="480" as="geometry" />
        </mxCell>
        <mxCell id="o_Yrqxy243uBN1DklZEX-3" value="nginx" style="rounded=0;whiteSpace=wrap;html=1;" vertex="1" parent="1">
          <mxGeometry x="500" y="250" width="120" height="80" as="geometry" />
        </mxCell>
        <mxCell id="o_Yrqxy243uBN1DklZEX-4" value="Services" style="text;html=1;align=center;verticalAlign=middle;whiteSpace=wrap;rounded=0;fillColor=#3399FF;" vertex="1" parent="1">
          <mxGeometry x="430" y="210" width="60" height="30" as="geometry" />
        </mxCell>
        <mxCell id="o_Yrqxy243uBN1DklZEX-5" value="Containers" style="text;html=1;align=center;verticalAlign=middle;whiteSpace=wrap;rounded=0;fillColor=#33FFFF;" vertex="1" parent="1">
          <mxGeometry x="500" y="250" width="60" height="20" as="geometry" />
        </mxCell>
        <mxCell id="o_Yrqxy243uBN1DklZEX-6" value="Nodejs" style="rounded=0;whiteSpace=wrap;html=1;" vertex="1" parent="1">
          <mxGeometry x="500" y="360" width="120" height="80" as="geometry" />
        </mxCell>
        <mxCell id="o_Yrqxy243uBN1DklZEX-7" value="Containers" style="text;html=1;align=center;verticalAlign=middle;whiteSpace=wrap;rounded=0;fillColor=#33FFFF;" vertex="1" parent="1">
          <mxGeometry x="500" y="360" width="60" height="20" as="geometry" />
        </mxCell>
        <mxCell id="o_Yrqxy243uBN1DklZEX-8" value="Ansible" style="rounded=0;whiteSpace=wrap;html=1;" vertex="1" parent="1">
          <mxGeometry x="500" y="470" width="120" height="80" as="geometry" />
        </mxCell>
        <mxCell id="o_Yrqxy243uBN1DklZEX-9" value="Containers" style="text;html=1;align=center;verticalAlign=middle;whiteSpace=wrap;rounded=0;fillColor=#33FFFF;" vertex="1" parent="1">
          <mxGeometry x="500" y="470" width="60" height="20" as="geometry" />
        </mxCell>
        <mxCell id="o_Yrqxy243uBN1DklZEX-10" value="Socat" style="rounded=0;whiteSpace=wrap;html=1;" vertex="1" parent="1">
          <mxGeometry x="500" y="580" width="120" height="80" as="geometry" />
        </mxCell>
        <mxCell id="o_Yrqxy243uBN1DklZEX-11" value="Containers" style="text;html=1;align=center;verticalAlign=middle;whiteSpace=wrap;rounded=0;fillColor=#33FFFF;" vertex="1" parent="1">
          <mxGeometry x="500" y="580" width="60" height="20" as="geometry" />
        </mxCell>
      </root>
    </mxGraphModel>
  </diagram>
</mxfile>
